<svg width="1194" height="190" viewBox="0 0 1194 190" fill="none" xmlns="http://www.w3.org/2000/svg">
<path d="M8 182H365.5C378.755 182 389.5 171.255 389.5 158V62C389.5 48.7452 400.245 38 413.5 38H771" stroke="#EAEAEA" stroke-width="2" stroke-linecap="round" stroke-linejoin="round"/>
<circle r="2" transform="matrix(-1 0 0 1 8 182)" stroke="#EAEAEA"/>
<path d="M410 38L786.5 38C794.784 38 801.5 31.2843 801.5 23V23C801.5 14.7157 808.216 8 816.5 8L1193 8" stroke="#EAEAEA" stroke-width="2" stroke-linecap="round" stroke-linejoin="round"/>
<path d="M1193.71 8.70711C1194.1 8.31658 1194.1 7.68342 1193.71 7.29289L1187.34 0.928932C1186.95 0.538408 1186.32 0.538408 1185.93 0.928932C1185.54 1.31946 1185.54 1.95262 1185.93 2.34315L1191.59 8L1185.93 13.6569C1185.54 14.0474 1185.54 14.6805 1185.93 15.0711C1186.32 15.4616 1186.95 15.4616 1187.34 15.0711L1193.71 8.70711ZM1093 9H1193V7H1093V9Z" fill="#EAEAEA"/>
</svg>
